<svg xmlns="http://www.w3.org/2000/svg" viewBox="0 0 24 24">
  <g fill="none">
    <path d="M0 0h24v24H0Z"/>
    <g stroke-width="1.5" fill="none" stroke="#6AD19E">
      <path d="M13 16.5h-2c-2.21 0-4-1.8-4-4v-8c0-.552.44-1 1-1h8c.55 0 1 .44 1 1v8c0 2.2-1.8 4-4 4Z"/>
      <path d="M12 16.5v4"/>
      <g stroke-linecap="round" stroke-width="1.5" stroke="#6AD19E" fill="none" stroke-linejoin="round">
        <path d="M9 20.5h6"/>
        <path d="M17 6.5h3c.55 0 1 .44 1 1v2c0 1.657-1.343 3-3 3h-1"/>
        <path d="M7 6.5H4c-.552 0-1 .44-1 1v2c0 1.657 1.343 3 3 3h1"/>
      </g>
    </g>
  </g>
</svg>